<?xml version="1.0" encoding="UTF-8"?>
<svg xmlns="http://www.w3.org/2000/svg" xmlns:xlink="http://www.w3.org/1999/xlink" width="96pt" height="24pt" viewBox="0 0 96 24" version="1.1">
<g id="surface1">
<path style=" stroke:none;fill-rule:evenodd;fill:rgb(89.019608%,2.352941%,7.45098%);fill-opacity:1;" d="M 8.53125 0 C 6.75 0 4.640625 1.71875 2.898438 4.613281 C 1.085938 7.605469 0.00390625 11.3125 0.00390625 14.535156 C 0.00390625 19.246094 2.632812 24 8.53125 24 C 14.421875 24 17.058594 19.246094 17.058594 14.535156 C 17.058594 11.3125 15.976562 7.605469 14.171875 4.613281 C 12.414062 1.71875 10.304688 0 8.53125 0 Z M 54.578125 7.070312 L 60.546875 7.070312 L 60.546875 22.714844 L 66.945312 22.714844 L 66.945312 7.070312 L 72.910156 7.070312 L 72.910156 1.285156 L 54.578125 1.285156 Z M 86.554688 7.070312 L 95.9375 7.070312 L 95.9375 1.285156 L 86.554688 1.285156 C 77.9375 1.285156 73.335938 5.59375 73.335938 12 C 73.335938 18.40625 77.9375 22.714844 86.554688 22.714844 L 95.9375 22.714844 L 95.9375 16.929688 L 86.554688 16.929688 C 82.566406 16.929688 79.945312 15.496094 79.945312 12 C 79.945312 8.503906 82.566406 7.070312 86.554688 7.070312 Z M 41.570312 1.285156 L 38.160156 14.074219 L 34.753906 1.285156 L 23.453125 1.285156 L 23.453125 22.714844 L 29.847656 22.714844 L 29.847656 5.285156 L 34.496094 22.714844 L 41.828125 22.714844 L 46.476562 5.273438 L 46.476562 22.714844 L 52.875 22.714844 L 52.875 1.285156 Z M 41.570312 1.285156 "/>
</g>
</svg>
