<?xml version="1.0" encoding="UTF-8"?>
<svg xmlns="http://www.w3.org/2000/svg" xmlns:xlink="http://www.w3.org/1999/xlink" width="24pt" height="24pt" viewBox="0 0 24 24" version="1.1">
<g id="surface1">
<path style=" stroke:none;fill-rule:nonzero;fill:rgb(0%,0%,0%);fill-opacity:1;" d="M 12 0.375 C 5.371094 0.375 0 5.578125 0 12 C 0 18.421875 5.371094 23.625 12 23.625 C 18.628906 23.625 24 18.421875 24 12 C 24 5.578125 18.628906 0.375 12 0.375 Z M 17.894531 8.339844 L 15.925781 17.328125 C 15.777344 17.96875 15.386719 18.121094 14.839844 17.820312 L 11.839844 15.679688 L 10.394531 17.03125 C 10.234375 17.183594 10.097656 17.316406 9.789062 17.316406 L 10 14.359375 L 15.5625 9.492188 C 15.804688 9.285156 15.507812 9.167969 15.1875 9.375 L 8.316406 13.566406 L 5.355469 12.671875 C 4.714844 12.472656 4.699219 12.046875 5.492188 11.746094 L 17.0625 7.425781 C 17.597656 7.238281 18.066406 7.550781 17.894531 8.339844 Z M 17.894531 8.339844 "/>
</g>
</svg>
