<svg xmlns="http://www.w3.org/2000/svg" width="128" height="32" viewBox="0 0 96 24"><path d="M8.531 0C6.75 0 4.641 1.719 2.898 4.613 1.086 7.605.004 11.313.004 14.535.004 19.246 2.633 24 8.53 24c5.89 0 8.528-4.754 8.528-9.465 0-3.223-1.082-6.93-2.887-9.922C12.414 1.72 10.305 0 8.532 0zm46.047 7.07h5.969v15.645h6.398V7.07h5.965V1.285H54.578zm31.977 0h9.382V1.285h-9.382c-8.618 0-13.22 4.309-13.22 10.715s4.603 10.715 13.22 10.715h9.382V16.93h-9.382c-3.989 0-6.61-1.434-6.61-4.93 0-3.496 2.621-4.93 6.61-4.93zM41.57 1.285l-3.41 12.79-3.406-12.79h-11.3v21.43h6.394V5.285l4.648 17.43h7.332l4.649-17.442v17.442h6.398V1.285zm0 0" fill-rule="evenodd" fill="#e30613"/></svg>